<svg width="26" height="26" fill="none" xmlns="http://www.w3.org/2000/svg"><circle cx="13" cy="13" r="13" fill="#E8F0FE"/><path d="M13 4.75l-6.75 3v4.5c0 4.163 2.88 8.055 6.75 9 3.87-.945 6.75-4.837 6.75-9v-4.5l-6.75-3zm0 8.242h5.25c-.398 3.09-2.46 5.843-5.25 6.706V13H7.75V8.725L13 6.393v6.6z" fill="#00796B"/><path fill-rule="evenodd" clip-rule="evenodd" d="M13 23.167c4.715-2.25 6.398-6.32 6.828-9.262a17.7 17.7 0 00.151-1.988V6.969L13 4.833 6.022 6.97v4.948c0 .395.06 1.367.15 1.988.431 2.942 2.114 7.013 6.829 9.262z" fill="#4285F4"/><path fill-rule="evenodd" clip-rule="evenodd" d="M15.274 11.869h.283c.485 0 .88.398.882.885v4.423a.886.886 0 01-.88.887h-5.22a.886.886 0 01-.88-.887v-4.422c0-.487.395-.886.88-.886h.283v-.883c0-1.267 1.043-2.299 2.326-2.299 1.282 0 2.326 1.032 2.326 2.3v.882zm-2.326-2.345c-.817 0-1.496.656-1.496 1.463v.882h2.992v-.883c0-.806-.68-1.462-1.496-1.462z" fill="#fff"/><path fill-rule="evenodd" clip-rule="evenodd" d="M13.937 14.528c0-.522-.444-.945-.985-.945-.54 0-.994.423-.994.945 0 .349.134.654.475.817v1.05h1.026v-1.05c.342-.164.478-.468.478-.817z" fill="#185ABC"/></svg>